<svg width="123" height="123" viewBox="0 0 123 123" fill="none" xmlns="http://www.w3.org/2000/svg">
<circle cx="61.5" cy="61.5" r="61.5" fill="#03AB1D"/>
<path d="M108.465 68.6078L92.5951 82.7325C91.9811 83.279 91.2501 83.5276 90.402 83.4782C89.5539 83.4288 88.8566 83.0972 88.3102 82.4831L74.1855 66.6129C73.3027 65.621 73.155 64.504 73.7423 63.2617C74.306 62.0405 75.2679 61.4807 76.628 61.5822L85.8675 62.1199C85.9921 55.7451 83.9421 50.1843 79.7173 45.4374C77.5313 42.9813 74.967 41.063 72.0242 39.6825C69.0815 38.302 66.0702 37.5222 62.9904 37.3429C59.9106 37.1637 56.8291 37.589 53.7461 38.6188C50.6631 39.6486 47.8936 41.2565 45.4375 43.4425C42.9813 45.6284 41.0631 48.1928 39.6826 51.1355C38.3021 54.0783 37.5222 57.0896 37.343 60.1694C37.1638 63.2492 37.5891 66.3306 38.6189 69.4137C39.6487 72.4967 41.2566 75.2662 43.4425 77.7223C46.9947 81.7135 51.3645 84.2575 56.5519 85.3543C61.7392 86.4512 66.7713 85.8875 71.6481 83.6632C72.3384 83.3451 72.9253 83.4576 73.4087 84.0008L79.6829 91.0503C80.0192 91.4282 80.1402 91.8495 80.046 92.3143C79.9491 92.8237 79.7039 93.1901 79.3102 93.4135C74.3576 96.1708 69.1233 97.708 63.6073 98.0252C58.0913 98.3424 52.7807 97.4399 47.6754 95.3178C42.5701 93.1956 38.1362 90.0209 34.3739 85.7936C31.0949 82.1094 28.6834 77.9495 27.1393 73.3138C25.5953 68.6781 24.957 64.0616 25.2245 59.4642C25.4921 54.8667 26.6615 50.3554 28.7329 45.9301C30.8043 41.5048 33.6821 37.6527 37.3662 34.3738C41.0504 31.0949 45.2103 28.6834 49.846 27.1393C54.4816 25.5952 59.0982 24.9569 63.6956 25.2245C68.293 25.492 72.8044 26.6615 77.2297 28.7329C81.6549 30.8042 85.507 33.682 88.786 37.3662C91.8757 40.8378 94.2103 44.7805 95.7897 49.1943C97.3691 53.6081 98.0907 58.1399 97.9544 62.7897L106.623 63.3278C107.965 63.3611 108.865 64.0405 109.326 65.3661C109.744 66.6445 109.457 67.725 108.465 68.6078Z" fill="black"/>
</svg>
